<svg width="102" height="104" viewBox="0 0 102 104" fill="none" xmlns="http://www.w3.org/2000/svg">
<g clip-path="url(#clip0_134_488)">
<path d="M25.8465 75.6381C31.008 75.6381 60.8682 75.6381 66.0236 75.6381C66.2225 71.0563 65.8943 63.4544 63.0773 59.8362L62.9755 59.7063L56.8197 56.6155C56.9534 56.1647 57.0192 55.7517 57.0456 55.4481C57.076 55.0838 57.0258 54.7414 56.8957 54.4314C55.8801 52.0012 53.7312 50.7227 52.5491 50.1777C52.9094 49.452 53.1416 48.6728 53.2538 47.8768C53.9229 47.6883 54.4611 47.158 54.6376 46.4506L55.3561 43.5316C55.4834 43.0166 55.4035 42.4826 55.1298 42.0284C55.012 41.8326 54.8597 41.6677 54.6889 41.5268C56.7147 36.9252 53.3218 32.5863 53.1369 32.3579C49.4622 28.3849 44.8201 29.1278 44.5747 29.1718C37.8756 30.5746 35.2903 35.7088 36.7499 41.7302C36.3174 42.2092 36.136 42.8765 36.2962 43.5308L37.0182 46.4531C37.1933 47.1553 37.7273 47.6837 38.3916 47.8744C38.5966 49.3323 39.2137 50.6509 40.12 51.7136V54.0277C30.5067 58.9507 36.598 55.8099 28.8939 59.7073C28.8786 59.7801 25.279 63.6058 25.814 74.9453L25.8465 75.6381ZM64.6275 74.1835H58.0152V71.4058L62.3885 61.3941C64.5794 65.0305 64.6608 71.9737 64.6275 74.1835ZM55.6029 55.3245C55.3477 58.2558 53.7402 57.3698 52.7479 59.6282C51.9674 58.7699 51.7327 57.7408 51.9424 56.6392C52.3214 54.6164 51.0868 54.0157 51.3919 51.8903L51.4382 51.8416V51.8348C51.4644 51.8055 51.7079 51.5156 51.7783 51.424C54.3945 52.5644 55.6539 54.6854 55.6029 55.3245ZM41.5684 53.0206C42.7829 53.8629 44.2489 54.3607 45.8258 54.3607C47.3108 54.3607 48.7213 53.9287 49.9305 53.1329C50.0981 54.8038 50.7512 55.1383 50.5195 56.3679C50.476 56.5961 50.4525 56.821 50.4386 57.0422L45.9354 62.1175L40.1788 55.6276L41.5684 54.9019V53.0206H41.5684ZM39.758 46.8093V43.9953C39.758 42.9591 39.758 38.8481 39.758 39.0511C40.4588 37.7549 41.4142 36.8149 42.6016 36.2514C45.7818 38.0507 49.4423 40.736 51.8971 43.4386C51.8948 46.8803 51.9068 46.8896 51.884 47.1724L51.8824 47.1903C51.6909 50.3156 49.1211 52.9062 45.8258 52.9062C42.6221 52.9062 39.9623 50.3909 39.77 47.1594C39.7601 47.0436 39.758 46.9275 39.758 46.8093ZM38.8612 56.3295L45.9354 64.3043L50.6848 58.9515C50.7933 59.2641 50.9456 59.5593 51.1197 59.8445L45.9354 66.3277L38.2046 56.6591L38.8612 56.3295ZM53.3455 45.6388V43.392C53.4091 43.319 53.9491 42.6999 53.8854 42.7729C53.9153 43.9105 54.0381 42.5678 53.3455 45.6388ZM44.8428 30.6012C45.1301 30.6191 48.9905 30.014 52.0414 33.3078C52.1615 33.4586 54.6451 36.6585 53.6473 40.159C53.3058 38.6013 52.7106 36.6052 51.7698 35.6527L50.7416 36.6768C51.6704 37.6176 52.2805 40.4825 52.5129 41.9677C48.2523 37.5094 42.7562 34.6876 42.6808 34.6399C42.4052 34.8113 40.0794 35.2535 38.3902 38.5365L38.3096 38.6935V41.1047C38.2371 41.1055 38.0242 41.1077 38.0967 41.107C37.0234 35.9255 39.0787 31.8093 44.8428 30.6012ZM37.9441 42.6033L38.3096 44.0841V45.6406L37.7021 43.1818C37.613 42.8153 37.8845 42.6763 37.9441 42.6033ZM36.8791 57.3245L45.9354 68.6509L52.0627 60.9874C52.7292 61.5839 53.0497 61.6685 54.4629 62.3952L53.9862 60.7784C53.8653 60.3679 54.3441 59.7095 54.6333 59.4069C55.2789 59.0567 55.817 58.5573 56.2196 57.9407L61.2188 60.451L56.5668 71.1012V74.1836H35.3033V71.1008L30.6492 60.452L36.8791 57.3245ZM29.4809 61.3973L33.8549 71.4062V74.1836H27.2425C27.2093 71.9744 27.2914 65.0348 29.4809 61.3973Z" fill="#1CC89F"/>
</g>
<path d="M101 15V1H1V103H101V89" stroke="#1CC89F" stroke-width="2"/>
<defs>
<clipPath id="clip0_134_488">
<rect width="39.8298" height="48" fill="white" transform="translate(26 28)"/>
</clipPath>
</defs>
</svg>
