<svg width="102" height="104" viewBox="0 0 102 104" fill="none" xmlns="http://www.w3.org/2000/svg">
<g clip-path="url(#clip0_134_504)">
<path d="M25.8127 48.6131C25.8127 49.1484 25 49.1484 25 48.6131C25 37.2311 34.2311 28 45.6131 28C57 28 66.2263 37.2311 66.2263 48.6131C66.2263 49.1484 65.4185 49.1484 65.4185 48.6131C65.4185 40.9197 52.7762 40.9148 52.7762 48.6131C52.7762 49.1484 51.944 49.1484 51.944 48.6131C51.944 40.9392 39.2822 40.9392 39.2822 48.6131C39.2822 49.1484 38.4501 49.1484 38.4501 48.6131C38.4501 40.9538 25.8127 40.9002 25.8127 48.6131ZM38.5231 45.6253C38.7421 41.1971 39.438 37.2263 40.4501 34.1946C41.2579 31.7859 42.2798 29.9562 43.438 28.9294C34.747 29.8783 27.7105 36.4672 26.1387 45.0122C29.1314 40.6959 36.0414 41.0414 38.5231 45.6253ZM51.8808 45.4258C51.6569 41.1679 50.9805 37.3577 50.0073 34.4526C47.4963 26.9343 43.7299 26.9343 41.219 34.4526C40.2457 37.3577 39.5742 41.1679 39.3455 45.4258C42.0462 40.837 49.18 40.837 51.8808 45.4258ZM65.0876 45.0122C63.5207 36.4672 56.4842 29.8783 47.7883 28.9294C48.9513 29.9562 49.9684 31.7859 50.7762 34.1946C51.7883 37.2263 52.4842 41.1971 52.7032 45.6253C55.1995 41.017 62.1289 40.7445 65.0876 45.0122Z" fill="#1CC89F"/>
<path d="M42.9077 58.045V53.8592C42.1534 54.3605 41.5597 55.1344 41.5597 56.0786C41.5597 56.9985 42.1631 57.6069 42.9077 58.045ZM43.7203 59.3445C42.2751 58.6826 40.752 57.9087 40.752 56.0786C40.752 54.1901 42.1875 53.2459 43.7203 52.5402V59.3445Z" fill="#1CC89F"/>
<path d="M48.3185 64.3601V68.5936C49.0825 68.0876 49.6811 67.309 49.6811 66.3649C49.6811 65.4355 49.0679 64.8077 48.3185 64.3601ZM47.5107 63.0559C48.9609 63.7275 50.4937 64.5255 50.4937 66.3649C50.4937 68.2579 49.0485 69.2019 47.5107 69.9026V63.0559Z" fill="#1CC89F"/>
<path d="M48.3188 49.0949C51.6472 49.8638 55.0682 52.3553 55.0682 56.078C55.0682 59.2655 49.6813 59.1487 49.6813 56.078C49.6813 55.1291 49.0828 54.3505 48.3188 53.8493V59.8056C51.3991 60.8129 55.0779 62.6183 55.0779 66.3654C55.0779 70.093 51.657 72.5797 48.3188 73.3437C48.3042 76.8912 42.9173 76.8863 42.9076 73.3388C41.0098 72.9008 39.3601 72.0152 38.1679 70.8424C36.9173 69.6063 36.1777 68.054 36.1777 66.3654C36.1777 63.2266 41.5596 63.2266 41.5596 66.3654C41.5596 67.3046 42.1533 68.0783 42.9076 68.5796V62.6281C39.8516 61.6402 36.1533 59.7813 36.1533 56.0683C36.1533 52.3407 39.5742 49.854 42.9076 49.09C42.9222 45.5425 48.309 45.5474 48.3188 49.0949ZM43.7202 49.1046V49.7518C40.5523 50.3796 36.9611 52.4088 36.9611 56.0683C36.9611 59.5866 40.9027 61.1633 43.7202 62.0344V69.8983C42.1971 69.2024 40.7519 68.2632 40.7519 66.3654C40.7519 64.2923 36.9854 64.2923 36.9854 66.3654C36.9854 67.8301 37.6375 69.183 38.7373 70.2633C40.1339 71.6453 41.8273 72.3023 43.7202 72.677V73.3291C43.7202 75.8255 47.511 75.8255 47.511 73.3291V72.6818C50.6886 72.0492 54.2652 70.02 54.2652 66.3654C54.2652 62.813 50.3334 61.285 47.511 60.3944V53.1631V52.5354C49.039 53.2312 50.494 54.1704 50.494 56.078C50.494 58.0975 54.2555 58.1803 54.2555 56.078C54.2555 52.4234 50.6837 50.3893 47.511 49.7567V49.1046C47.511 46.6082 43.7202 46.6082 43.7202 49.1046Z" fill="#1CC89F"/>
</g>
<path d="M101 15V1H1V103H101V89" stroke="#1CC89F" stroke-width="2"/>
<defs>
<clipPath id="clip0_134_504">
<rect width="42" height="48" fill="white" transform="translate(25 28)"/>
</clipPath>
</defs>
</svg>
